<svg xmlns="http://www.w3.org/2000/svg" version="1.1" xmlns:xlink="http://www.w3.org/1999/xlink" xmlns:svgjs="http://svgjs.dev/svgjs" width="1000" height="1000" viewBox="0 0 1000 1000"><rect width="1000" height="1000" fill="#000000"></rect><g transform="matrix(0.7,0,0,0.7,149.57575757575756,436.9298723009025)"><svg viewBox="0 0 396 72" data-background-color="#ffffff" preserveAspectRatio="xMidYMid meet" height="181" width="1000" xmlns="http://www.w3.org/2000/svg" xmlns:xlink="http://www.w3.org/1999/xlink"><g id="tight-bounds" transform="matrix(1,0,0,1,0.2400000000000091,-0.1590434543408321)"><svg viewBox="0 0 395.52 72.31808690868166" height="72.31808690868166" width="395.52"><g><svg viewBox="0 0 526.7150796047067 96.306196660008" height="72.31808690868166" width="395.52"><g transform="matrix(1,0,0,1,131.19507960470668,13.310045992808632)"><svg viewBox="0 0 395.52000000000004 69.68610467439073" height="69.68610467439073" width="395.52000000000004"><g id="textblocktransform"><svg viewBox="0 0 395.52000000000004 69.68610467439073" height="69.68610467439073" width="395.52000000000004" id="textblock"><g><svg viewBox="0 0 395.52000000000004 69.68610467439073" height="69.68610467439073" width="395.52000000000004"><g transform="matrix(1,0,0,1,0,0)"><svg width="395.52000000000004" viewBox="1.2300000190734863 -32.43000030517578 187.7100067138672 33.08000183105469" height="69.68610467439073" data-palette-color="#7955af"><path d="M6.23 0L1.23 0 12.13-31.85 18-31.85 28.58 0 23.58 0 21.1-7.6 8.8-7.6 6.23 0ZM14.98-26.13L10-11.25 19.93-11.25 14.98-26.13ZM39.42 0L34.67 0 34.67-31.85 39.42-31.85 39.42 0ZM59.07-5.13L58.52-5.13 67.4-31.85 72.42-31.85 61.25 0 56.27 0 45.22-31.85 50.27-31.85 59.07-5.13ZM98.12 0L78.12 0 78.12-31.85 98.12-31.85 98.12-27.75 82.87-27.75 82.87-18.05 97.22-18.05 97.22-13.95 82.87-13.95 82.87-4.15 98.12-4.15 98.12 0ZM111.54 0L106.79 0 106.79-31.85 118.19-31.85Q123.77-31.85 126.68-29.21 129.59-26.58 129.59-22.28L129.59-22.28Q129.59-18.03 126.68-15.4 123.77-12.78 118.19-12.78L118.19-12.78 111.54-12.78 111.54 0ZM130.54 0L124.37 0 115.54-14.65 120.67-14.65 130.54 0ZM111.54-27.75L111.54-16.03 117.77-16.03Q121.17-16.03 122.94-17.66 124.72-19.3 124.72-21.9L124.72-21.9Q124.72-24.58 123.05-26.16 121.39-27.75 118.19-27.75L118.19-27.75 111.54-27.75ZM148.66 0.65L148.66 0.65Q145.41 0.65 142.69-0.51 139.96-1.68 138.3-3.98 136.64-6.28 136.56-9.73L136.56-9.73 141.21-9.73Q141.21-7.65 142.22-6.33 143.24-5 144.91-4.36 146.59-3.73 148.61-3.73L148.61-3.73Q150.66-3.73 152.24-4.35 153.81-4.98 154.68-6.03 155.54-7.08 155.54-8.43L155.54-8.43Q155.54-10.25 154.41-11.36 153.29-12.48 150.99-13.25L150.99-13.25 145.06-15.45Q141.24-16.88 139.24-18.74 137.24-20.6 137.24-23.93L137.24-23.93Q137.24-27.7 140.19-30.06 143.14-32.43 148.49-32.43L148.49-32.43Q153.56-32.43 156.38-30.08 159.19-27.73 159.59-23.68L159.59-23.68 154.91-23.68Q154.56-25.73 153-26.93 151.44-28.13 148.49-28.13L148.49-28.13Q145.64-28.13 144.04-26.89 142.44-25.65 142.44-23.78L142.44-23.78Q142.44-22.23 143.45-21.3 144.46-20.38 146.61-19.63L146.61-19.63 153.36-17.15Q156.84-15.93 158.79-13.85 160.74-11.78 160.74-8.58L160.74-8.58Q160.74-5.88 159.34-3.8 157.94-1.73 155.24-0.54 152.54 0.65 148.66 0.65ZM188.94 0L168.94 0 168.94-31.85 188.94-31.85 188.94-27.75 173.69-27.75 173.69-18.05 188.04-18.05 188.04-13.95 173.69-13.95 173.69-4.15 188.94-4.15 188.94 0Z" opacity="1" transform="matrix(1,0,0,1,0,0)" fill="#ffffff" class="wordmark-text-0" data-fill-palette-color="primary" id="text-0"></path></svg></g></svg></g></svg></g></svg></g><g><svg viewBox="0 0 114.7438627575952 96.306196660008" height="96.306196660008" width="114.7438627575952"><g><svg xmlns="http://www.w3.org/2000/svg" xmlns:xlink="http://www.w3.org/1999/xlink" version="1.1" x="0" y="0" viewBox="5.000161170959473 12.231470108032227 90.0002670288086 75.53853607177734" enable-background="new 0 0 100 100" xml:space="preserve" height="96.306196660008" width="114.7438627575952" class="icon-icon-0" data-fill-palette-color="accent" id="icon-0"><path fill-rule="evenodd" clip-rule="evenodd" d="M37.854 26.105c4.419 0.427 9.428 0.088 13.873 1.506 9.941 3.172 12.788 12.875 6.951 21.616-5.842 8.748-19.074 12.679-28.707 8.529-5.733-2.47-8.564-7.035-8.386-13.493 0.031-1.115 0.004-2.23 0.004-3.859-1.384 1.08-2.314 2.11-3.474 2.62-1.036 0.456-2.631 0.83-3.42 0.339-0.834-0.521-1.51-2.167-1.378-3.21 0.498-3.95 2.573-7.114 5.903-9.304 2.276-1.498 4.431-0.314 4.684 2.432 0.073 0.803 0.011 1.618 0.011 2.586 3.181-2.606 6.212-5.089 9.882-8.096-1.812 0.348-2.923 0.822-3.96 0.692-1.139-0.141-2.447-0.605-3.204-1.391-0.354-0.366 0.118-2.113 0.728-2.727 3.469-3.495 7.695-5.516 12.689-5.434 2.33 0.038 3.104 1.875 1.559 3.693C40.347 24.094 38.744 25.293 37.854 26.105z" fill="#ffffff" data-fill-palette-color="accent"></path><path fill-rule="evenodd" clip-rule="evenodd" d="M67.94 49.245c6.422 0.004 9.633 4.886 6.659 10.807-3.024 6.023-8.019 9.765-15.011 9.989-6.783 0.217-9.113-4.218-6.999-10.354C54.57 53.937 61.87 49.242 67.94 49.245z" fill="#ffffff" data-fill-palette-color="accent"></path><path fill-rule="evenodd" clip-rule="evenodd" d="M74.326 45.595c-5.795-0.04-10.959-5.349-10.944-11.251 0.01-4.357 3.075-7.577 7.186-7.55 5.739 0.039 11.674 6.009 11.645 11.717C82.191 42.906 79.158 45.627 74.326 45.595z" fill="#ffffff" data-fill-palette-color="accent"></path><path fill-rule="evenodd" clip-rule="evenodd" d="M36.197 75.248c-2.691-0.746-5.478-1.256-8.046-2.303-2.54-1.036-4.417-3.082-4.375-6.015 0.041-2.863 2.01-4.553 4.556-5.425 4.971-1.703 9.95-1.554 14.65 0.823 2.614 1.323 4.723 3.389 4.095 6.751-0.636 3.414-3.49 4.53-6.349 5.351-1.381 0.397-2.913 0.271-4.377 0.383C36.3 74.958 36.249 75.102 36.197 75.248z" fill="#ffffff" data-fill-palette-color="accent"></path><path fill-rule="evenodd" clip-rule="evenodd" d="M88.205 52.5c5.772-0.035 8.319 4.093 5.863 8.747-2.173 4.12-7.616 6.623-11.453 5.267-3.709-1.311-5.093-4.566-3.344-8.096C81.184 54.559 84.474 52.786 88.205 52.5z" fill="#ffffff" data-fill-palette-color="accent"></path><path fill-rule="evenodd" clip-rule="evenodd" d="M46.266 87.77c-2.305-0.647-4.112-0.884-5.658-1.646-3.387-1.671-3.609-5.446-0.465-7.569 3.783-2.554 7.987-2.739 12.106-1.13 3.565 1.392 4.038 5.329 0.839 7.496C51.013 86.325 48.388 86.917 46.266 87.77z" fill="#ffffff" data-fill-palette-color="accent"></path><path fill-rule="evenodd" clip-rule="evenodd" d="M57.453 27.11c-2.69-0.852-5.713-1.424-8.362-2.749-2.986-1.494-2.787-4.063 0.091-5.745 3.72-2.173 12.656-1.704 16.048 0.843 2.476 1.857 2.406 4.397-0.435 5.661C62.648 26.075 60.217 26.391 57.453 27.11z" fill="#ffffff" data-fill-palette-color="accent"></path><path fill-rule="evenodd" clip-rule="evenodd" d="M23.009 56.955c0.223 2.711-0.844 4.873-3.298 5.907-2.602 1.095-4.785-0.288-6.373-2.243-2.035-2.506-3.362-5.387-2.407-8.749 1.258-4.428 5.612-5.746 8.71-2.37 1.798 1.958 2.784 4.662 4.135 7.029C23.521 56.671 23.265 56.813 23.009 56.955z" fill="#ffffff" data-fill-palette-color="accent"></path><path fill-rule="evenodd" clip-rule="evenodd" d="M75.446 15.578c2.298 1.132 4.353 1.767 5.882 3.037 0.915 0.759 1.645 2.734 1.288 3.751-0.365 1.041-2.194 2.245-3.323 2.188-1.999-0.1-4.194-0.742-5.84-1.851-1.147-0.772-2.348-2.96-2.011-4.048C71.828 17.411 73.889 16.688 75.446 15.578z" fill="#ffffff" data-fill-palette-color="accent"></path><path fill-rule="evenodd" clip-rule="evenodd" d="M16.589 70.245c-0.965 1.368-1.612 3.255-2.71 3.568-1.08 0.307-3.025-0.646-3.847-1.653-1.048-1.285-1.825-3.18-1.823-4.81 0.002-1.304 1.066-3.109 2.191-3.732 0.768-0.426 2.856 0.455 3.629 1.366C15.165 66.325 15.651 68.213 16.589 70.245z" fill="#ffffff" data-fill-palette-color="accent"></path><path fill-rule="evenodd" clip-rule="evenodd" d="M45.207 17.008c-1.104-0.705-2.2-1.406-3.298-2.105 1.098-0.819 2.091-2.043 3.317-2.354 1.657-0.42 3.54-0.396 5.239-0.088 1.749 0.317 2.037 1.67 0.427 2.551C49.295 15.886 47.424 16.257 45.207 17.008z" fill="#ffffff" data-fill-palette-color="accent"></path><path fill-rule="evenodd" clip-rule="evenodd" d="M10.555 41.71c-0.106 3.194-2.276 6.416-3.938 6.2-0.639-0.083-1.572-1.251-1.612-1.966-0.132-2.368 2.467-5.919 4.086-5.665C9.78 40.388 10.317 41.462 10.555 41.71z" fill="#ffffff" data-fill-palette-color="accent"></path><path fill-rule="evenodd" clip-rule="evenodd" d="M19.22 28.43c-0.552-1.517-1.03-2.235-0.991-2.923 0.028-0.5 0.647-1.162 1.165-1.403 1.829-0.85 3.725-1.549 5.596-2.307 0.114 0.565 0.515 1.45 0.297 1.645C23.54 25.011 21.674 26.448 19.22 28.43z" fill="#ffffff" data-fill-palette-color="accent"></path></svg></g></svg></g></svg></g><defs></defs></svg><rect width="395.52" height="72.31808690868166" fill="none" stroke="none" visibility="hidden"></rect></g></svg></g></svg>